<?xml version="1.0" standalone="no"?>
<!DOCTYPE svg PUBLIC "-//W3C//DTD SVG 20010904//EN"
 "http://www.w3.org/TR/2001/REC-SVG-20010904/DTD/svg10.dtd">
<svg version="1.0" xmlns="http://www.w3.org/2000/svg"
 width="220.000000pt" height="220.000000pt" viewBox="0 0 220.000000 220.000000"
 preserveAspectRatio="xMidYMid meet">

<g transform="translate(0.000000,220.000000) scale(0.100000,-0.100000)"
fill="#000000" stroke="none">
<path d="M1020 1973 c0 -16 3 -52 6 -80 7 -51 8 -53 37 -53 29 0 29 1 23 38
-3 20 -6 56 -6 80 0 40 -1 42 -30 42 -26 0 -30 -4 -30 -27z"/>
<path d="M1138 1989 c-29 -17 -23 -64 12 -89 17 -12 30 -26 30 -31 0 -13 -34
-11 -48 3 -10 10 -15 10 -22 -2 -12 -20 -5 -27 34 -34 90 -17 129 62 52 104
-26 14 -36 40 -14 40 6 0 19 -7 28 -15 16 -14 18 -14 23 -1 12 30 -57 47 -95
25z"/>
<path d="M944 1955 c8 -41 -2 -44 -34 -10 -24 26 -64 33 -75 15 -6 -9 4 -68
22 -132 2 -10 13 -18 24 -18 17 0 19 5 13 43 l-7 42 35 -32 c33 -32 71 -43 83
-24 3 6 -2 42 -11 80 -13 59 -19 71 -36 71 -18 0 -19 -4 -14 -35z"/>
<path d="M1270 1914 c-11 -36 -20 -72 -20 -79 0 -20 48 -25 56 -6 5 13 7 13
14 -5 7 -17 70 -53 70 -40 0 2 -7 23 -15 46 -21 59 -20 64 22 84 34 16 35 19
19 28 -14 8 -26 6 -46 -6 -37 -21 -43 -20 -30 4 8 15 6 21 -9 30 -34 17 -40
12 -61 -56z"/>
<path d="M748 1929 c-10 -5 -18 -21 -18 -34 0 -30 -16 -33 -25 -5 -5 16 -10
18 -31 8 -13 -6 -24 -14 -24 -18 0 -11 60 -140 65 -140 2 0 15 5 29 12 20 9
23 14 15 25 -13 15 -1 17 20 4 10 -6 25 -4 45 6 l30 15 -30 15 c-74 38 -75 39
-59 83 15 42 12 46 -17 29z"/>
<path d="M1465 1839 c-33 -27 -61 -53 -63 -58 -6 -17 31 -21 48 -6 24 21 50 9
50 -24 0 -28 16 -51 36 -51 7 0 18 32 26 78 14 74 14 78 -6 94 -12 10 -23 17
-26 17 -3 0 -32 -22 -65 -50z m49 -24 c-7 -16 -24 -21 -24 -6 0 8 7 13 27 20
1 1 0 -6 -3 -14z"/>
<path d="M575 1834 c-11 -9 -28 -22 -39 -29 -17 -13 -16 -17 29 -79 l47 -66
44 32 c24 17 44 35 44 40 0 12 -24 10 -38 -4 -9 -9 -16 -8 -30 5 -16 17 -16
19 7 36 17 13 20 20 12 26 -7 4 -21 -1 -31 -10 -17 -16 -19 -15 -29 4 -10 17
-8 23 9 33 11 7 20 16 20 20 0 13 -24 8 -45 -8z"/>
<path d="M435 1710 c-34 -35 -46 -53 -39 -60 8 -8 15 -6 24 4 11 14 19 10 63
-30 l50 -45 21 21 21 21 -49 46 c-43 39 -48 47 -38 63 24 39 -6 27 -53 -20z"/>
<path d="M1680 1684 c-30 -25 -56 -47 -58 -49 -6 -5 23 -45 32 -45 5 0 19 9
31 20 20 19 23 19 35 5 11 -13 9 -20 -14 -44 -26 -27 -26 -28 -6 -46 21 -19
21 -20 115 59 l30 25 -21 21 -20 21 -26 -20 c-23 -19 -27 -19 -39 -5 -11 14
-10 19 12 38 24 20 24 24 11 44 -8 12 -17 22 -21 22 -3 0 -31 -21 -61 -46z"/>
<path d="M982 1573 c0 -16 6 -38 15 -51 12 -19 21 -23 56 -20 39 3 42 5 44 35
4 43 -19 63 -71 63 -41 0 -44 -2 -44 -27z"/>
<path d="M1121 1586 c-7 -8 -11 -30 -9 -48 3 -29 7 -33 35 -36 51 -5 73 12 73
58 l0 40 -44 0 c-26 0 -48 -6 -55 -14z"/>
<path d="M1779 1511 c-40 -41 -36 -94 11 -141 40 -40 117 -17 135 40 9 30 -12
86 -42 110 -36 28 -69 25 -104 -9z m111 -36 c18 -21 7 -39 -34 -59 -47 -22
-71 -18 -71 13 0 17 10 29 35 42 42 23 54 24 70 4z"/>
<path d="M283 1481 l-21 -49 68 -31 c36 -17 70 -31 74 -31 4 0 16 21 26 46 22
50 16 84 -7 40 -12 -22 -17 -25 -34 -16 -15 9 -17 15 -9 30 13 25 13 30 -4 30
-8 0 -18 -9 -21 -20 -7 -22 -13 -24 -34 -11 -10 6 -11 13 -2 29 14 27 14 32
-2 32 -7 0 -22 -22 -34 -49z"/>
<path d="M1917 1524 c-8 -8 1 -24 14 -24 5 0 9 7 9 15 0 15 -12 20 -23 9z"/>
<path d="M732 1443 l3 -48 53 -3 52 -3 0 35 c0 42 -28 66 -78 66 l-33 0 3 -47z"/>
<path d="M862 1443 l3 -48 53 -3 52 -3 0 30 c0 42 -31 71 -76 71 l-35 0 3 -47z"/>
<path d="M987 1483 c-10 -10 -8 -52 3 -74 8 -15 22 -19 60 -19 49 0 50 1 50
30 0 40 -31 70 -73 70 -19 0 -37 -3 -40 -7z"/>
<path d="M1132 1474 c-15 -11 -22 -25 -22 -50 l0 -34 49 0 c54 0 61 8 61 66 0
32 -2 34 -33 34 -18 0 -43 -7 -55 -16z"/>
<path d="M1257 1472 c-10 -10 -17 -33 -17 -50 0 -31 1 -32 43 -32 53 0 67 13
67 62 0 37 -1 38 -38 38 -25 0 -45 -7 -55 -18z"/>
<path d="M1392 1474 c-15 -11 -22 -25 -22 -50 0 -33 1 -34 43 -34 53 0 67 13
67 62 0 36 -1 38 -33 38 -18 0 -43 -7 -55 -16z"/>
<path d="M1932 1468 c6 -18 28 -21 28 -4 0 9 -7 16 -16 16 -9 0 -14 -5 -12
-12z"/>
<path d="M230 1344 c-33 -86 19 -153 101 -131 32 8 59 59 59 110 0 31 -3 35
-32 41 -36 7 -33 9 -41 -25 -6 -23 -3 -27 25 -35 30 -9 31 -10 13 -27 -13 -13
-26 -16 -49 -11 -54 11 -87 57 -51 70 20 8 19 34 0 34 -9 0 -20 -12 -25 -26z"/>
<path d="M600 1332 c0 -49 14 -62 67 -62 42 0 43 1 43 33 0 43 -26 67 -73 67
-36 0 -37 -1 -37 -38z"/>
<path d="M730 1332 c0 -49 14 -62 67 -62 42 0 43 1 43 33 0 43 -26 67 -73 67
-36 0 -37 -1 -37 -38z"/>
<path d="M860 1332 c0 -49 14 -62 67 -62 42 0 43 1 43 33 0 43 -26 67 -73 67
-36 0 -37 -1 -37 -38z"/>
<path d="M980 1336 c0 -48 23 -68 74 -64 34 2 42 7 44 26 2 13 -4 34 -12 48
-13 19 -25 24 -61 24 -45 0 -45 0 -45 -34z"/>
<path d="M1127 1352 c-10 -10 -17 -33 -17 -50 0 -31 1 -32 43 -32 53 0 67 13
67 62 0 37 -1 38 -38 38 -25 0 -45 -7 -55 -18z"/>
<path d="M1256 1354 c-9 -8 -16 -31 -16 -50 0 -33 1 -34 43 -34 53 0 67 13 67
62 0 38 0 38 -39 38 -23 0 -46 -7 -55 -16z"/>
<path d="M1388 1359 c-12 -7 -18 -22 -18 -49 l0 -40 43 0 c53 0 67 13 67 62 0
37 -1 38 -37 38 -21 0 -46 -5 -55 -11z"/>
<path d="M1518 1359 c-12 -7 -18 -22 -18 -49 l0 -40 45 0 c50 0 65 16 65 69 0
29 -2 31 -37 31 -21 0 -46 -5 -55 -11z"/>
<path d="M1845 1305 c-28 -27 -32 -71 -14 -124 10 -29 14 -32 43 -25 40 8 40
8 32 39 -6 23 -10 26 -36 20 -37 -8 -42 16 -8 39 50 35 127 8 100 -35 -16 -25
-15 -29 8 -29 24 0 27 34 6 85 -25 59 -88 74 -131 30z"/>
<path d="M600 1212 c0 -49 14 -62 67 -62 42 0 43 1 43 34 0 45 -22 66 -71 66
-39 0 -39 0 -39 -38z"/>
<path d="M730 1212 c0 -49 14 -62 67 -62 42 0 43 1 43 33 0 43 -26 67 -73 67
-36 0 -37 -1 -37 -38z"/>
<path d="M860 1212 c0 -49 14 -62 67 -62 42 0 43 1 43 33 0 43 -26 67 -73 67
-36 0 -37 -1 -37 -38z"/>
<path d="M984 1215 c5 -51 22 -67 69 -63 36 3 41 6 44 32 6 42 -21 66 -73 66
l-43 0 3 -35z"/>
<path d="M1126 1234 c-9 -8 -16 -31 -16 -50 0 -33 1 -34 43 -34 53 0 67 13 67
62 0 38 0 38 -39 38 -23 0 -46 -7 -55 -16z"/>
<path d="M1252 1238 c-7 -7 -12 -29 -12 -50 0 -37 1 -38 36 -38 56 0 74 15 74
60 l0 40 -43 0 c-24 0 -48 -5 -55 -12z"/>
<path d="M1388 1239 c-12 -7 -18 -22 -18 -49 0 -39 1 -40 36 -40 56 0 74 15
74 60 0 40 0 40 -37 40 -21 0 -46 -5 -55 -11z"/>
<path d="M1512 1238 c-7 -7 -12 -29 -12 -50 0 -38 0 -38 39 -38 49 0 71 21 71
66 0 33 -1 34 -43 34 -24 0 -48 -5 -55 -12z"/>
<path d="M200 1156 c0 -21 4 -23 35 -19 44 4 44 -5 0 -37 -25 -18 -35 -33 -35
-52 l0 -28 80 0 c73 0 80 2 80 20 0 16 -7 20 -35 20 -44 0 -44 9 0 39 26 18
35 31 35 52 l0 29 -80 0 c-77 0 -80 -1 -80 -24z"/>
<path d="M488 1133 c-13 -3 -18 -14 -18 -36 0 -47 12 -58 61 -60 44 -2 44 -2
47 35 4 52 -32 76 -90 61z"/>
<path d="M1560 1132 c-48 -5 -60 -18 -60 -64 0 -39 0 -40 38 -37 49 4 72 24
72 65 0 38 -3 41 -50 36z"/>
<path d="M1653 1125 c-17 -12 -23 -26 -23 -56 0 -37 1 -39 33 -39 51 0 79 25
75 68 -3 32 -7 36 -33 39 -16 2 -40 -4 -52 -12z"/>
<path d="M600 1090 c0 -46 22 -63 73 -58 28 3 32 7 35 36 5 46 -12 62 -64 62
l-44 0 0 -40z"/>
<path d="M730 1090 c0 -46 22 -63 73 -58 26 2 33 8 35 30 6 48 -13 68 -63 68
l-45 0 0 -40z"/>
<path d="M860 1090 c0 -46 22 -63 73 -58 28 3 32 7 35 34 4 42 -19 64 -69 64
-39 0 -39 0 -39 -40z"/>
<path d="M984 1094 c7 -52 22 -66 70 -62 38 3 41 5 44 34 4 44 -19 64 -74 64
l-44 0 4 -36z"/>
<path d="M1121 1116 c-7 -8 -11 -30 -9 -48 3 -29 7 -33 35 -36 51 -5 73 12 73
58 l0 40 -44 0 c-26 0 -48 -6 -55 -14z"/>
<path d="M1251 1116 c-7 -8 -11 -30 -9 -48 3 -30 6 -33 39 -36 46 -4 69 18 69
64 0 34 -1 34 -44 34 -26 0 -48 -6 -55 -14z"/>
<path d="M1382 1118 c-7 -7 -12 -29 -12 -50 0 -38 0 -38 39 -38 49 0 71 21 71
66 0 33 -1 34 -43 34 -24 0 -48 -5 -55 -12z"/>
<path d="M1836 1114 c-9 -24 -7 -63 4 -85 22 -40 92 -13 113 44 3 9 7 9 18 0
10 -10 9 -16 -6 -33 -16 -18 -16 -20 -1 -26 23 -9 28 -1 30 45 2 76 -63 95
-101 31 -17 -29 -33 -35 -40 -13 -2 6 3 18 12 26 20 20 19 27 -4 27 -10 0 -22
-7 -25 -16z"/>
<path d="M470 982 c0 -49 14 -62 67 -62 42 0 43 1 43 34 0 42 -29 66 -77 66
-32 0 -33 -2 -33 -38z"/>
<path d="M600 986 c0 -58 7 -66 61 -66 l49 0 0 34 c0 42 -29 66 -77 66 -31 0
-33 -2 -33 -34z"/>
<path d="M732 973 l3 -48 53 -3 52 -3 0 35 c0 42 -28 66 -78 66 l-33 0 3 -47z"/>
<path d="M862 973 l3 -48 53 -3 52 -3 0 30 c0 42 -31 71 -76 71 l-35 0 3 -47z"/>
<path d="M987 1013 c-10 -10 -8 -52 3 -74 8 -14 21 -19 55 -19 l45 0 0 40 c0
29 -5 42 -19 50 -22 11 -74 14 -84 3z"/>
<path d="M1132 1004 c-15 -11 -22 -25 -22 -50 l0 -34 49 0 c54 0 61 8 61 66 0
32 -2 34 -33 34 -18 0 -43 -7 -55 -16z"/>
<path d="M1262 1004 c-15 -11 -22 -25 -22 -50 0 -33 1 -34 43 -34 53 0 67 13
67 62 0 36 -1 38 -33 38 -18 0 -43 -7 -55 -16z"/>
<path d="M1392 1004 c-15 -11 -22 -25 -22 -50 0 -33 1 -34 43 -34 53 0 67 13
67 62 0 36 -1 38 -33 38 -18 0 -43 -7 -55 -16z"/>
<path d="M1517 1002 c-10 -10 -17 -33 -17 -50 0 -31 1 -32 43 -32 53 0 67 13
67 62 0 37 -1 38 -38 38 -25 0 -45 -7 -55 -18z"/>
<path d="M1648 1009 c-12 -7 -18 -23 -18 -49 l0 -40 45 0 c50 0 69 20 63 68
-3 23 -8 27 -38 29 -19 2 -43 -2 -52 -8z"/>
<path d="M258 988 c-41 -9 -48 -14 -48 -33 0 -39 5 -39 146 -10 17 4 20 10 16
30 -5 28 -28 31 -114 13z"/>
<path d="M1827 983 c-15 -14 -7 -53 11 -53 13 0 11 -3 -7 -13 -23 -11 -49 -67
-31 -67 5 0 29 9 54 19 l45 20 24 -42 c23 -39 25 -40 32 -18 5 16 1 32 -14 52
l-21 28 28 -2 c22 -2 28 3 30 23 3 24 -2 27 -62 43 -72 19 -80 20 -89 10z"/>
<path d="M341 886 l-32 -46 -39 20 c-28 15 -40 17 -40 8 0 -23 16 -39 46 -48
28 -8 28 -9 7 -15 -24 -8 -29 -30 -14 -54 8 -12 19 -11 73 8 76 28 82 33 73
61 -5 16 -13 20 -27 17 -18 -5 -18 -4 -5 16 11 18 11 28 2 51 l-12 29 -32 -47z"/>
<path d="M600 866 c0 -58 7 -66 61 -66 l49 0 0 34 c0 42 -29 66 -77 66 -31 0
-33 -2 -33 -34z"/>
<path d="M732 853 l3 -48 53 -3 52 -3 0 35 c0 42 -28 66 -78 66 l-33 0 3 -47z"/>
<path d="M857 893 c-10 -10 -8 -52 3 -74 8 -14 21 -19 55 -19 l45 0 0 40 c0
29 -5 42 -19 50 -22 11 -74 14 -84 3z"/>
<path d="M980 826 c0 -113 11 -106 -161 -106 l-149 0 0 -30 0 -30 435 0 435 0
0 30 0 29 -152 3 -153 3 -3 88 -3 87 -124 0 -125 0 0 -74z"/>
<path d="M1257 882 c-10 -10 -17 -33 -17 -50 0 -31 1 -32 43 -32 53 0 67 13
67 62 0 37 -1 38 -38 38 -25 0 -45 -7 -55 -18z"/>
<path d="M1387 882 c-10 -10 -17 -33 -17 -50 0 -31 1 -32 43 -32 53 0 67 13
67 62 0 37 -1 38 -38 38 -25 0 -45 -7 -55 -18z"/>
<path d="M1516 884 c-9 -8 -16 -31 -16 -50 0 -33 1 -34 43 -34 53 0 67 13 67
62 0 38 0 38 -39 38 -23 0 -46 -7 -55 -16z"/>
<path d="M1773 795 c-30 -30 -34 -40 -31 -76 8 -106 138 -107 167 -1 13 44 0
77 -38 97 -44 22 -59 19 -98 -20z m92 -51 c31 -28 24 -54 -15 -54 -33 0 -80
35 -80 60 0 35 54 32 95 -6z"/>
<path d="M417 774 c-3 -3 -1 -17 6 -31 9 -19 8 -26 -4 -34 -21 -13 -27 -11
-34 12 -7 22 -32 20 -26 -2 8 -31 5 -43 -11 -47 -10 -2 -19 5 -23 18 -5 15
-10 19 -17 12 -9 -9 21 -84 39 -95 5 -3 38 13 74 35 l67 39 -25 44 c-26 47
-36 58 -46 49z"/>
<path d="M485 659 c-4 -5 0 -18 9 -28 16 -17 14 -21 -36 -64 l-53 -46 20 -20
20 -21 63 51 62 51 -36 44 c-40 49 -40 48 -49 33z"/>
<path d="M1646 610 c-35 -44 -47 -66 -43 -82 9 -31 -22 -52 -45 -31 -15 14
-20 13 -43 -5 l-25 -20 73 -45 c71 -43 75 -44 96 -28 l21 16 -25 74 c-29 87
-30 91 -10 91 9 0 18 7 21 15 9 22 17 19 70 -25 45 -37 49 -38 66 -23 10 9 18
19 18 23 0 9 -109 100 -119 100 -3 0 -28 -27 -55 -60z m-21 -141 c11 -17 -1
-21 -15 -4 -8 9 -8 15 -2 15 6 0 14 -5 17 -11z"/>
<path d="M550 535 c-6 -8 -9 -23 -5 -36 5 -13 3 -19 -3 -15 -18 11 -42 -5 -42
-29 0 -21 69 -96 88 -95 4 1 28 28 54 61 l47 61 -27 22 c-56 47 -91 57 -112
31z m74 -37 c-15 -27 -27 -38 -35 -32 -13 8 9 44 27 44 9 0 12 -5 8 -12z m-54
-68 c-6 -11 -15 -18 -20 -15 -13 8 0 35 16 35 12 0 12 -4 4 -20z"/>
<path d="M727 389 c-20 -12 -22 -32 -3 -48 18 -15 46 -4 46 19 0 26 -22 40
-43 29z"/>
<path d="M1444 385 c-15 -11 -17 -17 -8 -32 15 -25 48 -23 52 3 4 31 -20 47
-44 29z"/>
<path d="M861 333 c-16 -83 -15 -100 12 -107 31 -8 90 -7 103 2 19 13 23 40 8
53 -14 11 -14 13 0 21 9 5 16 20 16 34 0 27 -18 37 -86 47 l-41 7 -12 -57z
m83 -6 c-3 -9 -10 -17 -15 -17 -11 0 -12 34 -2 43 11 12 24 -8 17 -26z m-10
-46 c3 -4 -1 -17 -9 -27 -14 -18 -14 -18 -15 9 0 26 13 36 24 18z"/>
<path d="M1284 356 c5 -26 3 -35 -10 -40 -19 -7 -34 9 -34 37 0 11 -8 17 -24
17 -40 0 -40 -7 -11 -138 5 -18 11 -23 33 -20 25 3 27 6 24 41 -3 31 0 37 16
37 14 0 21 -9 26 -30 4 -23 11 -30 29 -30 13 0 26 2 29 5 3 3 -2 39 -10 80
-14 73 -15 75 -44 75 -29 0 -30 -2 -24 -34z"/>
<path d="M1020 350 c0 -5 12 -10 26 -10 26 0 26 -1 22 -67 -3 -68 -3 -68 25
-71 26 -3 27 -2 27 45 0 67 9 93 31 93 11 0 19 5 19 10 0 6 -32 10 -75 10 -43
0 -75 -4 -75 -10z"/>
</g>
</svg>
